{
    "asset" : {
        "generator" : "Khronos glTF Blender I/O v1.6.16",
        "version" : "2.0"
    },
    "scene" : 0,
    "scenes" : [
        {
            "name" : "Scene",
            "nodes" : [
                0
            ]
        }
    ],
    "nodes" : [
        {
            "mesh" : 0,
            "name" : "Cube",
            "scale" : [
                0.21717925369739532,
                0.21717925369739532,
                0.21717925369739532
            ]
        }
    ],
    "materials" : [
        {
            "doubleSided" : true,
            "name" : "Material",
            "pbrMetallicRoughness" : {
                "metallicFactor" : 0,
                "roughnessFactor" : 0.4000000059604645
            }
        },
        {
            "doubleSided" : true,
            "name" : "Material.001",
            "pbrMetallicRoughness" : {
                "baseColorFactor" : [
                    0,
                    0,
                    0,
                    1
                ],
                "metallicFactor" : 0,
                "roughnessFactor" : 0.5
            }
        }
    ],
    "meshes" : [
        {
            "name" : "Cube",
            "primitives" : [
                {
                    "attributes" : {
                        "POSITION" : 0,
                        "NORMAL" : 1,
                        "TEXCOORD_0" : 2
                    },
                    "indices" : 3,
                    "material" : 0
                },
                {
                    "attributes" : {
                        "POSITION" : 4,
                        "NORMAL" : 5,
                        "TEXCOORD_0" : 6
                    },
                    "indices" : 7,
                    "material" : 1
                }
            ]
        }
    ],
    "accessors" : [
        {
            "bufferView" : 0,
            "componentType" : 5126,
            "count" : 1058,
            "max" : [
                1.2040942907333374,
                3.2363710403442383,
                5.604729652404785
            ],
            "min" : [
                -1.8335503339767456,
                -4.492600917816162,
                -18.685264587402344
            ],
            "type" : "VEC3"
        },
        {
            "bufferView" : 1,
            "componentType" : 5126,
            "count" : 1058,
            "type" : "VEC3"
        },
        {
            "bufferView" : 2,
            "componentType" : 5126,
            "count" : 1058,
            "type" : "VEC2"
        },
        {
            "bufferView" : 3,
            "componentType" : 5123,
            "count" : 1947,
            "type" : "SCALAR"
        },
        {
            "bufferView" : 4,
            "componentType" : 5126,
            "count" : 109,
            "max" : [
                0.9959683418273926,
                0.9959683418273926,
                5.604729652404785
            ],
            "min" : [
                -1.8335503339767456,
                -4.492600917816162,
                -18.685264587402344
            ],
            "type" : "VEC3"
        },
        {
            "bufferView" : 5,
            "componentType" : 5126,
            "count" : 109,
            "type" : "VEC3"
        },
        {
            "bufferView" : 6,
            "componentType" : 5126,
            "count" : 109,
            "type" : "VEC2"
        },
        {
            "bufferView" : 7,
            "componentType" : 5123,
            "count" : 177,
            "type" : "SCALAR"
        }
    ],
    "bufferViews" : [
        {
            "buffer" : 0,
            "byteLength" : 12696,
            "byteOffset" : 0
        },
        {
            "buffer" : 0,
            "byteLength" : 12696,
            "byteOffset" : 12696
        },
        {
            "buffer" : 0,
            "byteLength" : 8464,
            "byteOffset" : 25392
        },
        {
            "buffer" : 0,
            "byteLength" : 3894,
            "byteOffset" : 33856
        },
        {
            "buffer" : 0,
            "byteLength" : 1308,
            "byteOffset" : 37752
        },
        {
            "buffer" : 0,
            "byteLength" : 1308,
            "byteOffset" : 39060
        },
        {
            "buffer" : 0,
            "byteLength" : 872,
            "byteOffset" : 40368
        },
        {
            "buffer" : 0,
            "byteLength" : 354,
            "byteOffset" : 41240
        }
    ],
    "buffers" : [
        {
            "byteLength" : 41596,
            "uri" : "data:application/octet-stream;base64,"
        }
    ]
}
