{
    "asset" : {
        "generator" : "Khronos glTF Blender I/O v1.6.16",
        "version" : "2.0"
    },
    "scene" : 0,
    "scenes" : [
        {
            "name" : "Scene",
            "nodes" : [
                0
            ]
        }
    ],
    "nodes" : [
        {
            "mesh" : 0,
            "name" : "Cube",
            "scale" : [
                4.755159854888916,
                1,
                1
            ]
        }
    ],
    "materials" : [
        {
            "doubleSided" : true,
            "name" : "Material",
            "pbrMetallicRoughness" : {
                "baseColorFactor" : [
                    0.2812045216560364,
                    0.2812045216560364,
                    0.2812045216560364,
                    1
                ],
                "metallicFactor" : 0.42975205183029175,
                "roughnessFactor" : 0.4000000059604645
            }
        },
        {
            "doubleSided" : true,
            "name" : "Material.001",
            "pbrMetallicRoughness" : {
                "baseColorFactor" : [
                    0.009123331867158413,
                    0.07836790382862091,
                    0.0022240763064473867,
                    1
                ],
                "roughnessFactor" : 0.5
            }
        }
    ],
    "meshes" : [
        {
            "name" : "Cube",
            "primitives" : [
                {
                    "attributes" : {
                        "POSITION" : 0,
                        "NORMAL" : 1,
                        "TEXCOORD_0" : 2
                    },
                    "indices" : 3,
                    "material" : 0
                },
                {
                    "attributes" : {
                        "POSITION" : 4,
                        "NORMAL" : 5,
                        "TEXCOORD_0" : 6
                    },
                    "indices" : 7,
                    "material" : 1
                }
            ]
        }
    ],
    "accessors" : [
        {
            "bufferView" : 0,
            "componentType" : 5126,
            "count" : 36452,
            "max" : [
                1.4958436489105225,
                2.092607259750366,
                2.604708194732666
            ],
            "min" : [
                -1.2884515523910522,
                -0.9582975506782532,
                -2.604708194732666
            ],
            "type" : "VEC3"
        },
        {
            "bufferView" : 1,
            "componentType" : 5126,
            "count" : 36452,
            "type" : "VEC3"
        },
        {
            "bufferView" : 2,
            "componentType" : 5126,
            "count" : 36452,
            "type" : "VEC2"
        },
        {
            "bufferView" : 3,
            "componentType" : 5123,
            "count" : 63636,
            "type" : "SCALAR"
        },
        {
            "bufferView" : 4,
            "componentType" : 5126,
            "count" : 4256,
            "max" : [
                1.0362069606781006,
                4.347921371459961,
                2.134977340698242
            ],
            "min" : [
                -1.281704306602478,
                -2.4801530838012695,
                -1.9934028387069702
            ],
            "type" : "VEC3"
        },
        {
            "bufferView" : 5,
            "componentType" : 5126,
            "count" : 4256,
            "type" : "VEC3"
        },
        {
            "bufferView" : 6,
            "componentType" : 5126,
            "count" : 4256,
            "type" : "VEC2"
        },
        {
            "bufferView" : 7,
            "componentType" : 5123,
            "count" : 6192,
            "type" : "SCALAR"
        }
    ],
    "bufferViews" : [
        {
            "buffer" : 0,
            "byteLength" : 437424,
            "byteOffset" : 0
        },
        {
            "buffer" : 0,
            "byteLength" : 437424,
            "byteOffset" : 437424
        },
        {
            "buffer" : 0,
            "byteLength" : 291616,
            "byteOffset" : 874848
        },
        {
            "buffer" : 0,
            "byteLength" : 127272,
            "byteOffset" : 1166464
        },
        {
            "buffer" : 0,
            "byteLength" : 51072,
            "byteOffset" : 1293736
        },
        {
            "buffer" : 0,
            "byteLength" : 51072,
            "byteOffset" : 1344808
        },
        {
            "buffer" : 0,
            "byteLength" : 34048,
            "byteOffset" : 1395880
        },
        {
            "buffer" : 0,
            "byteLength" : 12384,
            "byteOffset" : 1429928
        }
    ],
    "buffers" : [
        {
            "byteLength" : 1442312,
            "uri" : "data:application/octet-stream;base64,"
        }
    ]
}
